# xmcd
#
# Track frame offsets:
#	150
#	45358
#	108643
#	137607
#	185236
#
# Disc length: 3840 seconds
#
# Revision: 1
# Processed by: cddbd v1.5.2PL0 Copyright (c) Steve Scherf et al.
# Submitted via: audiograbber 1.83.01
#
DISCID=420efe05
DTITLE=Grateful Dead - 69-02-06 Kiel Auditorium, St Louis MO
DYEAR=1900
DGENRE=
TTITLE0=Morning Dew
TTITLE1=Dark Star
TTITLE2=St Stephen
TTITLE3=The Eleven
TTITLE4=Turn On Your Lovelight
EXTD=
EXTT0=
EXTT1=
EXTT2=
EXTT3=
EXTT4=
PLAYORDER=
